pkt_pts_time=0.016683
key_frame=1
pkt_pts_time=0.033367
--
pkt_pts_time=0.517183
key_frame=1
pkt_pts_time=0.533867
--
pkt_pts_time=1.017683
key_frame=1
pkt_pts_time=1.034367
--
pkt_pts_time=1.518183
key_frame=1
pkt_pts_time=1.534867
--
pkt_pts_time=2.018683
key_frame=1
pkt_pts_time=2.035367
--
pkt_pts_time=2.519183
key_frame=1
pkt_pts_time=2.535867
--
pkt_pts_time=3.019683
key_frame=1
pkt_pts_time=3.036367
--
pkt_pts_time=3.520183
key_frame=1
pkt_pts_time=3.536867
--
pkt_pts_time=4.020683
key_frame=1
pkt_pts_time=4.037367
--
pkt_pts_time=4.521183
key_frame=1
pkt_pts_time=4.537867
--
pkt_pts_time=5.021683
key_frame=1
pkt_pts_time=5.038367
--
pkt_pts_time=5.522183
key_frame=1
pkt_pts_time=5.538867
--
pkt_pts_time=6.022683
key_frame=1
pkt_pts_time=6.039367
--
pkt_pts_time=6.523183
key_frame=1
pkt_pts_time=6.539867
--
pkt_pts_time=7.023683
key_frame=1
pkt_pts_time=7.040367
--
pkt_pts_time=7.524183
key_frame=1
pkt_pts_time=7.540867
--
pkt_pts_time=8.024683
key_frame=1
pkt_pts_time=8.041367
--
pkt_pts_time=8.525183
key_frame=1
pkt_pts_time=8.541867
--
pkt_pts_time=9.025683
key_frame=1
pkt_pts_time=9.042367
--
pkt_pts_time=9.526183
key_frame=1
pkt_pts_time=9.542867
--
pkt_pts_time=10.026683
key_frame=1
pkt_pts_time=10.043367
--
pkt_pts_time=10.527183
key_frame=1
pkt_pts_time=10.543867
--
pkt_pts_time=11.027683
key_frame=1
pkt_pts_time=11.044367
--
pkt_pts_time=11.528183
key_frame=1
pkt_pts_time=11.544867
--
pkt_pts_time=12.028683
key_frame=1
pkt_pts_time=12.045367
--
pkt_pts_time=12.529183
key_frame=1
pkt_pts_time=12.545867
--
pkt_pts_time=13.029683
key_frame=1
pkt_pts_time=13.046367
--
pkt_pts_time=13.530183
key_frame=1
pkt_pts_time=13.546867
--
pkt_pts_time=14.030683
key_frame=1
pkt_pts_time=14.047367
--
pkt_pts_time=14.531183
key_frame=1
pkt_pts_time=14.547867
--
pkt_pts_time=15.031683
key_frame=1
pkt_pts_time=15.048367
--
pkt_pts_time=15.532183
key_frame=1
pkt_pts_time=15.548867
--
pkt_pts_time=16.032683
key_frame=1
pkt_pts_time=16.049367
--
pkt_pts_time=16.533183
key_frame=1
pkt_pts_time=16.549867
--
pkt_pts_time=17.033683
key_frame=1
pkt_pts_time=17.050367
--
pkt_pts_time=17.534183
key_frame=1
pkt_pts_time=17.550867
--
pkt_pts_time=18.034683
key_frame=1
pkt_pts_time=18.051367
--
pkt_pts_time=18.535183
key_frame=1
pkt_pts_time=18.551867
--
pkt_pts_time=19.035683
key_frame=1
pkt_pts_time=19.052367
--
pkt_pts_time=19.536183
key_frame=1
pkt_pts_time=19.552867
--
pkt_pts_time=20.036683
key_frame=1
pkt_pts_time=20.053367
--
pkt_pts_time=20.537183
key_frame=1
pkt_pts_time=20.553867
--
pkt_pts_time=21.037683
key_frame=1
pkt_pts_time=21.054367
--
pkt_pts_time=21.538183
key_frame=1
pkt_pts_time=21.554867
--
pkt_pts_time=22.038683
key_frame=1
pkt_pts_time=22.055367
--
pkt_pts_time=22.539183
key_frame=1
pkt_pts_time=22.555867
--
pkt_pts_time=23.039683
key_frame=1
pkt_pts_time=23.056367
--
pkt_pts_time=23.540183
key_frame=1
pkt_pts_time=23.556867
--
pkt_pts_time=24.040683
key_frame=1
pkt_pts_time=24.057367
--
pkt_pts_time=24.541183
key_frame=1
pkt_pts_time=24.557867
--
pkt_pts_time=25.041683
key_frame=1
pkt_pts_time=25.058367
--
pkt_pts_time=25.542183
key_frame=1
pkt_pts_time=25.558867
--
pkt_pts_time=26.042683
key_frame=1
pkt_pts_time=26.059367
--
pkt_pts_time=26.543183
key_frame=1
pkt_pts_time=26.559867
--
pkt_pts_time=27.043683
key_frame=1
pkt_pts_time=27.060367
